<?xml version="1.0" encoding="UTF-8" standalone="no"?>
<!-- Created with Inkscape (http://www.inkscape.org/) -->

<svg
   xmlns:dc="http://purl.org/dc/elements/1.1/"
   xmlns:cc="http://creativecommons.org/ns#"
   xmlns:rdf="http://www.w3.org/1999/02/22-rdf-syntax-ns#"
   xmlns:svg="http://www.w3.org/2000/svg"
   xmlns="http://www.w3.org/2000/svg"
   version="1.1"
   width="1000"
   height="1000"
   id="svg3032">
  <metadata
     id="metadata9">
    <rdf:RDF>
      <cc:Work
         rdf:about="">
        <dc:format>image/svg+xml</dc:format>
        <dc:type
           rdf:resource="http://purl.org/dc/dcmitype/StillImage" />
        <dc:title></dc:title>
      </cc:Work>
    </rdf:RDF>
  </metadata>
  <defs
     id="defs7" />
  <path
     d="M 909.96543,537.57006 C 905.67505,443.558 844.42838,380.2377 730.03182,356.78435 c -39.56503,28.87903 -82.16534,69.31712 -109.40887,113.88966 -4.03608,6.60518 -8.8843,7.7226 -13.12546,5.56225 -8.53154,-4.33312 -14.57747,-21.98829 -6.4807,-35.23588 l 0,0 c 21.11558,-34.54062 44.28202,-67.08231 69.78642,-94.35969 0,0 -19.2206,-9.00143 -39.39278,-9.00143 -21.55036,0 -38.52321,9.00143 -38.52321,9.00143 -43.2894,29.10251 -93.24817,73.97302 -123.8551,124.03332 -4.03607,6.60518 -8.88428,7.72261 -13.12545,5.56226 -8.53155,-4.34553 -14.57746,-21.9883 -6.48069,-35.23589 21.12378,-34.54061 44.282,-67.08231 69.7782,-94.35969 0.007,0.0106 -19.20418,-8.98902 -39.38456,-8.98902 -21.54216,0 -38.52323,9.00143 -38.52323,9.00143 -43.28938,29.10251 -93.24816,73.97302 -123.85508,124.03332 -12.16566,19.90245 -31.73079,-9.84568 -19.60616,-29.67362 21.08278,-34.47854 44.19998,-66.95815 69.63876,-94.19828 -177.07881,3.21567 -272.0579,72.84318 -277.43934,190.75555 -2.54306,55.74671 17.3092,124.79068 138.69506,124.79068 h 497.21691 45.32384 c 121.38586,-0.0106 141.23811,-69.04398 138.69505,-124.79068 z"
     id="path3" />
</svg>
