<?xml version="1.0" encoding="UTF-8" standalone="no"?>
<!-- Created with Inkscape (http://www.inkscape.org/) -->

<svg
   xmlns:dc="http://purl.org/dc/elements/1.1/"
   xmlns:cc="http://creativecommons.org/ns#"
   xmlns:rdf="http://www.w3.org/1999/02/22-rdf-syntax-ns#"
   xmlns:svg="http://www.w3.org/2000/svg"
   xmlns="http://www.w3.org/2000/svg"
   xmlns:inkscape="http://www.inkscape.org/namespaces/inkscape"
   version="1.1"
   width="79.956024"
   height="20.610371"
   viewBox="5 -10 79.956024 27.824"
   id="Your_Icon"
   xml:space="preserve"><metadata
     id="metadata21"><rdf:RDF><cc:Work
         rdf:about=""><dc:format>image/svg+xml</dc:format><dc:type
           rdf:resource="http://purl.org/dc/dcmitype/StillImage" /></cc:Work></rdf:RDF></metadata><defs
     id="defs19" /><path
     d="m 3.9706965,-1.9440001 c -3.70799998,0 -6.43,-1.731 -6.43,-4.006 l -1.433,3.559 c 0.298,0.991 1.928,4.056 7.07,4.353 l 87.2030005,-10e-4 c 5.143,-0.297 6.476,-1.88599997 5.007,-3.955 -0.234,-0.328 -91.4170005,0.05 -91.4170005,0.05 z"
     inkscape:connector-curvature="0"
     id="path3" /><path
     d="m 78.255697,3.8769999 c 2.706,0 4.948,2.186 4.948,4.92 0,2.7340001 -2.214,4.9770001 -4.948,4.9770001 -2.735,0 -4.978,-2.182 -4.978,-4.9770001 0,-2.764 2.242,-4.92 4.978,-4.92 z m -0.029,7.8570001 c 1.687,0 2.938,-1.336 2.938,-2.9380001 0,-1.632 -1.309,-2.883 -2.91,-2.883 -1.659,0 -2.939,1.311 -2.939,2.883 0,1.8050001 1.368,2.9380001 2.911,2.9380001 z"
     inkscape:connector-curvature="0"
     id="path5" /><path
     d="m 75.773697,3.8769999 h -5.404 v 3.58 h 1.571 c -0.055,-1.654 2.254,-3.58 3.833,-3.58 z"
     inkscape:connector-curvature="0"
     id="path7" /><path
     d="m 80.742697,3.8769999 h 5.404 v 3.58 h -1.572 c 0.056,-1.654 -2.253,-3.58 -3.832,-3.58 z"
     inkscape:connector-curvature="0"
     id="path9" /><path
     d="m 14.399697,3.8769999 c 2.707,0 4.949,2.186 4.949,4.92 0,2.7340001 -2.214,4.9770001 -4.949,4.9770001 -2.735,0 -4.9770005,-2.182 -4.9770005,-4.9770001 0,-2.764 2.2420005,-4.92 4.9770005,-4.92 z m -0.028,7.8570001 c 1.688,0 2.939,-1.336 2.939,-2.9380001 0,-1.632 -1.308,-2.883 -2.911,-2.883 -1.659,0 -2.938,1.311 -2.938,2.883 0,1.8050001 1.368,2.9380001 2.91,2.9380001 z"
     inkscape:connector-curvature="0"
     id="path11" /><path
     d="M 11.918697,3.8769999 H 6.5146964 v 3.58 h 1.5720001 c -0.056,-1.654 2.2520005,-3.58 3.8320005,-3.58 z"
     inkscape:connector-curvature="0"
     id="path13" /><path
     d="m 16.886697,3.8769999 h 5.405 v 3.58 h -1.572 c 0.055,-1.654 -2.253,-3.58 -3.833,-3.58 z"
     inkscape:connector-curvature="0"
     id="path15" /></svg>