<?xml version="1.0" encoding="UTF-8" standalone="no"?>
<svg
   xmlns:dc="http://purl.org/dc/elements/1.1/"
   xmlns:cc="http://creativecommons.org/ns#"
   xmlns:rdf="http://www.w3.org/1999/02/22-rdf-syntax-ns#"
   xmlns:svg="http://www.w3.org/2000/svg"
   xmlns="http://www.w3.org/2000/svg"
   xmlns:sodipodi="http://sodipodi.sourceforge.net/DTD/sodipodi-0.dtd"
   xmlns:inkscape="http://www.inkscape.org/namespaces/inkscape"
   version="1.1"
   id="Layer_1"
   x="0px"
   y="0px"
   width="112.55179"
   height="111.16196"
   viewBox="4.1 -8.2 112.55179 150.06864"
   enable-background="new 0 0 82 82"
   xml:space="preserve"
   inkscape:version="0.48.5 r10040"
   sodipodi:docname="noun_1141_cc.svg"><metadata
     id="metadata15"><rdf:RDF><cc:Work
         rdf:about=""><dc:format>image/svg+xml</dc:format><dc:type
           rdf:resource="http://purl.org/dc/dcmitype/StillImage" /></cc:Work></rdf:RDF></metadata><defs
     id="defs13" /><sodipodi:namedview
     pagecolor="#ffffff"
     bordercolor="#666666"
     borderopacity="1"
     objecttolerance="10"
     gridtolerance="10"
     guidetolerance="10"
     inkscape:pageopacity="0"
     inkscape:pageshadow="2"
     inkscape:window-width="1440"
     inkscape:window-height="852"
     id="namedview11"
     showgrid="false"
     inkscape:zoom="2.8780488"
     inkscape:cx="-39.555557"
     inkscape:cy="15.169019"
     inkscape:window-x="0"
     inkscape:window-y="0"
     inkscape:window-maximized="1"
     inkscape:current-layer="Layer_1"
     fit-margin-top="3"
     fit-margin-left="3"
     fit-margin-right="3"
     fit-margin-bottom="3" /><g
     id="g3028"
     transform="matrix(1.4983845,0,0,1.47884,-7.201246,-2.892986)"><path
       inkscape:connector-curvature="0"
       id="path3"
       d="m 45.1,-0.85 c -26.5092,0 -48,21.4896 -48,48 0,26.5092 21.4908,48 48,48 26.5104,0 48,-21.4908 48,-48 0,-26.5104 -21.4896,-48 -48,-48 z m 0,63.9996 c -8.8368,0 -16.0008,-7.164 -16.0008,-15.9996 0,-8.8368 7.164,-15.9996 16.0008,-15.9996 8.8368,0 16.0008,7.164 16.0008,15.9996 0,8.8356 -7.164,15.9996 -16.0008,15.9996 z" /><circle
       transform="matrix(1.2,0,0,1.2,-4.1,-2.05)"
       sodipodi:ry="1"
       sodipodi:rx="1"
       sodipodi:cy="41"
       sodipodi:cx="41"
       id="circle5"
       r="1"
       cy="41"
       cx="41"
       d="m 42,41 c 0,0.552285 -0.447715,1 -1,1 -0.552285,0 -1,-0.447715 -1,-1 0,-0.552285 0.447715,-1 1,-1 0.552285,0 1,0.447715 1,1 z" /></g></svg>