<svg xmlns="http://www.w3.org/2000/svg" xmlns:xlink="http://www.w3.org/1999/xlink" version="1.1" id="Layer_1" x="0px" y="0px" viewBox="0 0 100 100" enable-background="new 0 0 100 100" xml:space="preserve" height="100px" width="100px">
<path d="M94.4,32.3L80.3,19.1c-0.3-0.3-0.7-0.5-1.1-0.5l-16.1-2.4c-0.3,4.8-6.1,8.6-13.3,8.6c-7.2,0-13-3.8-13.3-8.6l-16.1,2.4  c-0.4,0-0.8,0.2-1.1,0.5L5.2,32.3c-0.6,0.6-0.6,1.6,0,2.2l12.1,12.8c0.6,0.6,1.5,0.6,2.1,0l8.3-8.8C28,59.1,27.1,82.7,26.8,89  c0,0.9,0.6,1.6,1.5,1.6l21.5,0l21.5,0c0.8,0,1.5-0.7,1.5-1.6c-0.3-6.3-1.1-29.9-0.9-50.6l8.3,8.8c0.6,0.6,1.5,0.6,2.1,0l12.1-12.8  C95,33.9,95,32.9,94.4,32.3z"/>
</svg>