<?xml version="1.0" encoding="UTF-8" standalone="no"?>
<!-- Created with Inkscape (http://www.inkscape.org/) -->

<svg
   xmlns:dc="http://purl.org/dc/elements/1.1/"
   xmlns:cc="http://creativecommons.org/ns#"
   xmlns:rdf="http://www.w3.org/1999/02/22-rdf-syntax-ns#"
   xmlns:svg="http://www.w3.org/2000/svg"
   xmlns="http://www.w3.org/2000/svg"
   xmlns:inkscape="http://www.inkscape.org/namespaces/inkscape"
   version="1.1"
   width="100"
   height="100"
   viewBox="5 -10 100 135"
   id="Livello_1"
   xml:space="preserve"><metadata
     id="metadata25"><rdf:RDF><cc:Work
         rdf:about=""><dc:format>image/svg+xml</dc:format><dc:type
           rdf:resource="http://purl.org/dc/dcmitype/StillImage" /></cc:Work></rdf:RDF></metadata><defs
     id="defs23" /><g
     transform="matrix(1.2638533,0,0,1.2638533,-8.1920356,-6.7560396)"
     id="g3002"><circle
       cx="23.488001"
       cy="44.471001"
       r="10.088"
       id="circle3"
       style="fill:#000000;stroke:#ffffff;stroke-width:0.2755;stroke-miterlimit:10" /><circle
       cx="50"
       cy="44.471001"
       r="10.087"
       id="circle5"
       style="fill:#000000;stroke:#ffffff;stroke-width:0.2755;stroke-miterlimit:10" /><circle
       cx="76.512001"
       cy="44.471001"
       r="10.087"
       id="circle7"
       style="fill:#000000;stroke:#ffffff;stroke-width:0.2755;stroke-miterlimit:10" /><circle
       cx="36.743999"
       cy="66.556999"
       r="10.087"
       id="circle9"
       style="fill:#000000;stroke:#ffffff;stroke-width:0.2755;stroke-miterlimit:10" /><circle
       cx="63.256001"
       cy="66.556999"
       r="10.087"
       id="circle11"
       style="fill:#000000;stroke:#ffffff;stroke-width:0.2755;stroke-miterlimit:10" /><circle
       cx="50"
       cy="88.642998"
       r="10.087"
       id="circle13"
       style="fill:#000000;stroke:#ffffff;stroke-width:0.2755;stroke-miterlimit:10" /><path
       d="m 76.513,21.02 h -24.37 v -7.092 l 7.455,-7.456 c 0.837,-0.837 0.837,-2.193 0,-3.03 -0.836,-0.836 -2.193,-0.836 -3.029,0 l -8.083,8.083 c -0.402,0.402 -0.627,0.947 -0.627,1.515 v 7.979 H 23.488 c -1.775,0 -3.214,1.439 -3.214,3.214 0,1.775 1.439,3.214 3.214,3.214 h 53.024 c 1.775,0 3.214,-1.439 3.214,-3.214 0,-1.775 -1.438,-3.213 -3.213,-3.213 z"
       inkscape:connector-curvature="0"
       id="path15"
       style="fill:#000000" /></g></svg>