<?xml version="1.0" encoding="UTF-8" standalone="no"?>
<!-- Created with Inkscape (http://www.inkscape.org/) -->

<svg
   xmlns:dc="http://purl.org/dc/elements/1.1/"
   xmlns:cc="http://creativecommons.org/ns#"
   xmlns:rdf="http://www.w3.org/1999/02/22-rdf-syntax-ns#"
   xmlns:svg="http://www.w3.org/2000/svg"
   xmlns="http://www.w3.org/2000/svg"
   xmlns:inkscape="http://www.inkscape.org/namespaces/inkscape"
   version="1.1"
   width="112.55179"
   height="111.16196"
   viewBox="4.1 -8.2 112.55179 150.06864"
   id="Layer_1"
   xml:space="preserve"><metadata
     id="metadata15"><rdf:RDF><cc:Work
         rdf:about=""><dc:format>image/svg+xml</dc:format><dc:type
           rdf:resource="http://purl.org/dc/dcmitype/StillImage" /></cc:Work></rdf:RDF></metadata><defs
     id="defs13" /><g
     transform="matrix(1.4983845,0,0,1.47884,-7.201246,-2.892986)"
     id="g3028"><path
       d="m 45.1,-0.85 c -26.5092,0 -48,21.4896 -48,48 0,26.5092 21.4908,48 48,48 26.5104,0 48,-21.4908 48,-48 0,-26.5104 -21.4896,-48 -48,-48 z m 0,63.9996 c -8.8368,0 -16.0008,-7.164 -16.0008,-15.9996 0,-8.8368 7.164,-15.9996 16.0008,-15.9996 8.8368,0 16.0008,7.164 16.0008,15.9996 0,8.8356 -7.164,15.9996 -16.0008,15.9996 z"
       inkscape:connector-curvature="0"
       id="path3" /><circle
       cx="41"
       cy="41"
       r="1"
       transform="matrix(1.2,0,0,1.2,-4.1,-2.05)"
       id="circle5" /></g></svg>