<?xml version="1.0" encoding="UTF-8" standalone="no"?>
<!-- Created with Inkscape (http://www.inkscape.org/) -->

<svg
   xmlns:dc="http://purl.org/dc/elements/1.1/"
   xmlns:cc="http://creativecommons.org/ns#"
   xmlns:rdf="http://www.w3.org/1999/02/22-rdf-syntax-ns#"
   xmlns:svg="http://www.w3.org/2000/svg"
   xmlns="http://www.w3.org/2000/svg"
   xmlns:inkscape="http://www.inkscape.org/namespaces/inkscape"
   version="1.1"
   width="55"
   height="100"
   viewBox="2.75 -10 55 135"
   id="svg2"
   xml:space="preserve"><metadata
     id="metadata16"><rdf:RDF><cc:Work
         rdf:about=""><dc:format>image/svg+xml</dc:format><dc:type
           rdf:resource="http://purl.org/dc/dcmitype/StillImage" /></cc:Work></rdf:RDF></metadata><defs
     id="defs14" /><g
     id="Layer_1"
     style="display:none" /><g
     id="Layer_2"><path
       d="m 39.465,68.41 c -1.646,-1.473 -1.62,-3.206 -0.262,-4.948 1.106,-1.417 1.738,-3.055 1.738,-4.802 0,-4.68 -4.527,-7.084 -10.57,-7.641 0.022,2.171 0.046,4.333 0.068,6.509 l 0.009,0.825 -0.736,-0.375 c -0.682,-0.348 -1.446,-0.531 -2.211,-0.531 -0.766,0 -1.531,0.184 -2.212,0.531 l -0.735,0.375 0.008,-0.825 c 0.022,-2.176 0.046,-4.338 0.068,-6.509 -6.042,0.557 -10.57,2.961 -10.57,7.641 0,1.747 0.632,3.385 1.737,4.802 1.359,1.742 1.386,3.476 -0.261,4.948 -3.431,3.068 -5.579,7.338 -5.579,11.781 0,8.506 7.854,13.4 17.543,13.4 9.689,0 17.543,-4.895 17.543,-13.4 0,-4.443 -2.147,-8.712 -5.578,-11.781 z M 27.5,58.123 c 2.719,0 4.922,2.203 4.922,4.922 0,2.719 -2.203,4.922 -4.922,4.922 -2.718,0 -4.922,-2.203 -4.922,-4.922 0,-2.719 2.204,-4.922 4.922,-4.922 z m -7.015,19.626 c 0.688,-1.113 0.915,-2.405 0.753,-3.583 4.175,0 8.35,0 12.524,0 -0.163,1.178 0.063,2.47 0.752,3.583 -4.325,0.814 -9.701,0.814 -14.029,0 z m 4.678,-29.957 h 4.674 c 0.009,0.822 0.018,1.643 0.026,2.465 h -4.726 c 0.009,-0.822 0.018,-1.643 0.026,-2.465 z m 0.063,-5.931 h 4.549 c 0.009,0.82 0.018,1.645 0.026,2.465 H 25.2 c 0.008,-0.82 0.017,-1.644 0.026,-2.465 z m 0.031,-2.965 h 4.486 c 0.009,0.82 0.018,1.645 0.026,2.465 H 25.23 c 0.01,-0.82 0.018,-1.645 0.027,-2.465 z m -0.154,14.667 h 4.795 c 0.008,0.74 0.016,1.478 0.023,2.219 H 25.08 c 0.007,-0.742 0.015,-1.479 0.023,-2.219 z m 4.436,-33.058 c 0.012,1.019 0.022,2.044 0.034,3.064 h -4.146 c 0.012,-1.02 0.022,-2.045 0.034,-3.064 1.359,0 2.719,0 4.078,0 z m -4.407,30.252 h 4.736 c 0.008,0.769 0.017,1.536 0.024,2.305 h -4.785 c 0.009,-0.769 0.017,-1.536 0.025,-2.305 z m 0.062,-5.93 h 4.611 c 0.009,0.821 0.018,1.644 0.026,2.465 h -4.664 c 0.01,-0.821 0.019,-1.645 0.027,-2.465 z m 0.227,-20.758 h 4.158 c 0.009,0.821 0.018,1.644 0.027,2.465 h -4.212 c 0.009,-0.821 0.018,-1.644 0.027,-2.465 z m -0.347,32.212 h 4.852 c 0.005,0.418 0.01,0.834 0.014,1.252 -1.532,-0.781 -3.346,-0.781 -4.878,0 0.003,-0.418 0.008,-0.834 0.012,-1.252 z m 0.216,-20.35 h 4.421 c 0.009,0.823 0.018,1.642 0.027,2.465 h -4.476 c 0.009,-0.824 0.019,-1.642 0.028,-2.465 z m 0.099,-8.896 h 4.223 c 0.01,0.821 0.019,1.644 0.027,2.465 h -4.277 c 0.008,-0.822 0.017,-1.644 0.027,-2.465 z M 25.355,30 h 4.289 c 0.009,0.822 0.019,1.643 0.027,2.465 h -4.344 c 0.01,-0.822 0.019,-1.643 0.028,-2.465 z m -0.032,2.965 h 4.355 c 0.009,0.822 0.019,1.642 0.027,2.465 h -4.41 c 0.009,-0.823 0.018,-1.642 0.028,-2.465 z M 23.589,7.353 c 2.197,-0.951 5.624,-0.951 7.821,0 -0.593,2.989 -1.172,6.45 -0.935,9.723 -0.782,0.796 -0.945,1.784 -0.936,2.58 -1.36,0 -2.72,0 -4.082,0 0.011,-0.796 -0.152,-1.784 -0.934,-2.58 h 0 c 0.239,-3.273 -0.341,-6.734 -0.934,-9.723 z m 7.999,2.018 c 0.084,-0.473 0.176,-0.854 0.573,-0.785 0.398,0.069 0.654,0.51 0.573,0.984 -0.083,0.475 -0.474,0.803 -0.871,0.734 -0.398,-0.069 -0.356,-0.458 -0.275,-0.933 z m -0.407,2.989 c 0.04,-0.495 0.098,-0.893 0.513,-0.86 0.418,0.034 0.72,0.461 0.681,0.956 -0.04,0.495 -0.408,0.869 -0.825,0.835 -0.416,-0.033 -0.41,-0.436 -0.369,-0.931 z m 0.962,3.112 c 0,0.503 -0.343,0.912 -0.766,0.912 -0.426,0 -0.45,-0.409 -0.45,-0.912 0,-0.504 0.024,-0.913 0.45,-0.913 0.423,0.001 0.766,0.409 0.766,0.913 z M 22.265,9.57 c -0.082,-0.474 0.174,-0.915 0.573,-0.984 0.399,-0.07 0.49,0.312 0.574,0.785 0.081,0.475 0.124,0.864 -0.275,0.933 -0.4,0.069 -0.789,-0.259 -0.872,-0.734 z m 1.042,1.93 c 0.415,-0.033 0.473,0.365 0.513,0.86 0.04,0.495 0.046,0.897 -0.369,0.931 -0.417,0.034 -0.785,-0.34 -0.825,-0.835 -0.04,-0.494 0.263,-0.921 0.681,-0.956 z m 0.316,3.06 c 0.425,0 0.45,0.409 0.45,0.913 0,0.503 -0.025,0.912 -0.45,0.912 -0.424,0 -0.766,-0.409 -0.766,-0.912 0,-0.505 0.342,-0.913 0.766,-0.913 z"
       inkscape:connector-curvature="0"
       id="path6"
       style="fill:#000000" /></g><text
     x="0"
     y="117.5"
     id="text8"
     style="font-size:5px;font-weight:bold;fill:#000000;font-family:'Helvetica Neue, Helvetica, Arial-Unicode, Arial, Sans-serif'">Created by Martin Smith</text>
<text
     x="0"
     y="122.5"
     id="text10"
     style="font-size:5px;font-weight:bold;fill:#000000;font-family:'Helvetica Neue, Helvetica, Arial-Unicode, Arial, Sans-serif'">from the Noun Project</text>
</svg>