<svg xmlns="http://www.w3.org/2000/svg" xmlns:xlink="http://www.w3.org/1999/xlink" version="1.1" x="0px" y="0px" width="55px" height="100px" viewBox="2.75 -10.0 55.0 135.0" enable-background="new 0 0 55 100" xml:space="preserve">
<g id="Layer_1" display="none">
	
		</g>
<g id="Layer_2">
	<path fill="#000000" d="M39.465,68.41c-1.646-1.473-1.62-3.206-0.262-4.948c1.106-1.417,1.738-3.055,1.738-4.802   c0-4.68-4.527-7.084-10.57-7.641c0.022,2.171,0.046,4.333,0.068,6.509l0.009,0.825l-0.736-0.375   c-0.682-0.348-1.446-0.531-2.211-0.531c-0.766,0-1.531,0.184-2.212,0.531l-0.735,0.375l0.008-0.825   c0.022-2.176,0.046-4.338,0.068-6.509c-6.042,0.557-10.57,2.961-10.57,7.641c0,1.747,0.632,3.385,1.737,4.802   c1.359,1.742,1.386,3.476-0.261,4.948c-3.431,3.068-5.579,7.338-5.579,11.781c0,8.506,7.854,13.4,17.543,13.4   c9.689,0,17.543-4.895,17.543-13.4C45.043,75.748,42.896,71.479,39.465,68.41z M27.5,58.123c2.719,0,4.922,2.203,4.922,4.922   s-2.203,4.922-4.922,4.922c-2.718,0-4.922-2.203-4.922-4.922S24.782,58.123,27.5,58.123z M20.485,77.749   c0.688-1.113,0.915-2.405,0.753-3.583c4.175,0,8.35,0,12.524,0c-0.163,1.178,0.063,2.47,0.752,3.583   C30.189,78.563,24.813,78.563,20.485,77.749z M25.163,47.792h4.674c0.009,0.822,0.018,1.643,0.026,2.465h-4.726   C25.146,49.435,25.155,48.614,25.163,47.792z M25.226,41.861h4.549c0.009,0.82,0.018,1.645,0.026,2.465H25.2   C25.208,43.506,25.217,42.682,25.226,41.861z M25.257,38.896h4.486c0.009,0.82,0.018,1.645,0.026,2.465h-4.539   C25.24,40.541,25.248,39.716,25.257,38.896z M25.103,53.563h4.795c0.008,0.74,0.016,1.478,0.023,2.219H25.08   C25.087,55.04,25.095,54.303,25.103,53.563z M29.539,20.505c0.012,1.019,0.022,2.044,0.034,3.064h-4.146   c0.012-1.02,0.022-2.045,0.034-3.064C26.82,20.505,28.18,20.505,29.539,20.505z M25.132,50.757h4.736   c0.008,0.769,0.017,1.536,0.024,2.305h-4.785C25.116,52.293,25.124,51.526,25.132,50.757z M25.194,44.827h4.611   c0.009,0.821,0.018,1.644,0.026,2.465h-4.664C25.177,46.471,25.186,45.647,25.194,44.827z M25.421,24.069h4.158   c0.009,0.821,0.018,1.644,0.027,2.465h-4.212C25.403,25.713,25.412,24.89,25.421,24.069z M25.074,56.281h4.852   c0.005,0.418,0.01,0.834,0.014,1.252c-1.532-0.781-3.346-0.781-4.878,0C25.065,57.115,25.07,56.699,25.074,56.281z M25.29,35.931   h4.421c0.009,0.823,0.018,1.642,0.027,2.465h-4.476C25.271,37.572,25.281,36.754,25.29,35.931z M25.389,27.035h4.223   c0.01,0.821,0.019,1.644,0.027,2.465h-4.277C25.37,28.678,25.379,27.856,25.389,27.035z M25.355,30h4.289   c0.009,0.822,0.019,1.643,0.027,2.465h-4.344C25.337,31.643,25.346,30.822,25.355,30z M25.323,32.965h4.355   c0.009,0.822,0.019,1.642,0.027,2.465h-4.41C25.304,34.607,25.313,33.788,25.323,32.965z M23.589,7.353   c2.197-0.951,5.624-0.951,7.821,0c-0.593,2.989-1.172,6.45-0.935,9.723c-0.782,0.796-0.945,1.784-0.936,2.58   c-1.36,0-2.72,0-4.082,0c0.011-0.796-0.152-1.784-0.934-2.58h0C24.762,13.803,24.182,10.342,23.589,7.353z M31.588,9.371   c0.084-0.473,0.176-0.854,0.573-0.785c0.398,0.069,0.654,0.51,0.573,0.984c-0.083,0.475-0.474,0.803-0.871,0.734   C31.465,10.235,31.507,9.846,31.588,9.371z M31.181,12.36c0.04-0.495,0.098-0.893,0.513-0.86c0.418,0.034,0.72,0.461,0.681,0.956   c-0.04,0.495-0.408,0.869-0.825,0.835C31.134,13.258,31.14,12.855,31.181,12.36z M32.143,15.472c0,0.503-0.343,0.912-0.766,0.912   c-0.426,0-0.45-0.409-0.45-0.912c0-0.504,0.024-0.913,0.45-0.913C31.8,14.56,32.143,14.968,32.143,15.472z M22.265,9.57   c-0.082-0.474,0.174-0.915,0.573-0.984c0.399-0.07,0.49,0.312,0.574,0.785c0.081,0.475,0.124,0.864-0.275,0.933   C22.737,10.373,22.348,10.045,22.265,9.57z M23.307,11.5c0.415-0.033,0.473,0.365,0.513,0.86s0.046,0.897-0.369,0.931   c-0.417,0.034-0.785-0.34-0.825-0.835C22.586,11.962,22.889,11.535,23.307,11.5z M23.623,14.56c0.425,0,0.45,0.409,0.45,0.913   c0,0.503-0.025,0.912-0.45,0.912c-0.424,0-0.766-0.409-0.766-0.912C22.857,14.968,23.199,14.56,23.623,14.56z"/>
</g>
<text x="0.0" y="117.5" font-size="5.0" font-weight="bold" font-family="Helvetica Neue, Helvetica, Arial-Unicode, Arial, Sans-serif" fill="#000000">Created by Martin Smith</text><text x="0.0" y="122.5" font-size="5.0" font-weight="bold" font-family="Helvetica Neue, Helvetica, Arial-Unicode, Arial, Sans-serif" fill="#000000">from the Noun Project</text></svg>