<?xml version="1.0" encoding="UTF-8" standalone="no"?>
<!-- Created with Inkscape (http://www.inkscape.org/) -->

<svg
   xmlns:dc="http://purl.org/dc/elements/1.1/"
   xmlns:cc="http://creativecommons.org/ns#"
   xmlns:rdf="http://www.w3.org/1999/02/22-rdf-syntax-ns#"
   xmlns:svg="http://www.w3.org/2000/svg"
   xmlns="http://www.w3.org/2000/svg"
   xmlns:inkscape="http://www.inkscape.org/namespaces/inkscape"
   version="1.0"
   width="80"
   height="21"
   viewBox="5 -2.6152 80 35.3052"
   id="Layer_1"
   xml:space="preserve"><metadata
     id="metadata9"><rdf:RDF><cc:Work
         rdf:about=""><dc:format>image/svg+xml</dc:format><dc:type
           rdf:resource="http://purl.org/dc/dcmitype/StillImage" /></cc:Work></rdf:RDF></metadata><defs
     id="defs7" /><path
     d="M 99.975,16.102 C 99.452,8.53 91.986,3.43 78.041,1.541 73.218,3.867 68.025,7.124 64.704,10.714 c -0.492,0.532 -1.083,0.622 -1.6,0.448 -1.04,-0.349 -1.777,-1.771 -0.79,-2.838 l 0,0 c 2.574,-2.782 5.398,-5.403 8.507,-7.6 0,0 -2.343,-0.725 -4.802,-0.725 -2.627,0 -4.696,0.725 -4.696,0.725 -5.277,2.344 -11.367,5.958 -15.098,9.99 -0.492,0.532 -1.083,0.622 -1.6,0.448 -1.04,-0.35 -1.777,-1.771 -0.79,-2.838 2.575,-2.782 5.398,-5.403 8.506,-7.6 C 52.342,0.725 50,0 47.54,0 44.914,0 42.844,0.725 42.844,0.725 37.567,3.069 31.477,6.683 27.746,10.715 26.263,12.318 23.878,9.922 25.356,8.325 27.926,5.548 30.744,2.932 33.845,0.738 12.259,0.997 0.681,6.605 0.025,16.102 c -0.31,4.49 2.11,10.051 16.907,10.051 h 60.611 5.525 c 14.797,-10e-4 17.217,-5.561 16.907,-10.051 z"
     inkscape:connector-curvature="0"
     id="path3" /></svg>