<?xml version="1.0" encoding="UTF-8" standalone="no"?>
<!-- Created with Inkscape (http://www.inkscape.org/) -->

<svg
   xmlns:dc="http://purl.org/dc/elements/1.1/"
   xmlns:cc="http://creativecommons.org/ns#"
   xmlns:rdf="http://www.w3.org/1999/02/22-rdf-syntax-ns#"
   xmlns:svg="http://www.w3.org/2000/svg"
   xmlns="http://www.w3.org/2000/svg"
   xmlns:sodipodi="http://sodipodi.sourceforge.net/DTD/sodipodi-0.dtd"
   xmlns:inkscape="http://www.inkscape.org/namespaces/inkscape"
   version="1.1"
   width="1000"
   height="1000"
   id="svg3032"
   inkscape:version="0.48.5 r10040"
   sodipodi:docname="grapes.svg">
  <sodipodi:namedview
     pagecolor="#ffffff"
     bordercolor="#666666"
     borderopacity="1"
     objecttolerance="10"
     gridtolerance="10"
     guidetolerance="10"
     inkscape:pageopacity="0"
     inkscape:pageshadow="2"
     inkscape:window-width="1440"
     inkscape:window-height="852"
     id="namedview7"
     showgrid="false"
     inkscape:zoom="0.236"
     inkscape:cx="-533.89831"
     inkscape:cy="419.49152"
     inkscape:window-x="0"
     inkscape:window-y="0"
     inkscape:window-maximized="1"
     inkscape:current-layer="svg3032" />
  <defs
     id="defs5498" />
  <metadata
     id="metadata5594">
    <rdf:RDF>
      <cc:Work
         rdf:about="">
        <dc:format>image/svg+xml</dc:format>
        <dc:type
           rdf:resource="http://purl.org/dc/dcmitype/StillImage" />
        <dc:title />
      </cc:Work>
    </rdf:RDF>
  </metadata>
  <g
     id="main_layer"
     transform="matrix(8.9642548,0,0,8.9642548,51.791735,44.244971)">
    <circle
       cx="23.488001"
       cy="44.471001"
       r="10.088"
       id="circle3"
       style="fill:#000000;stroke:#ffffff;stroke-width:0.2755;stroke-miterlimit:10"
       d="m 33.576001,44.471001 c 0,5.571448 -4.516551,10.088 -10.088,10.088 -5.571449,0 -10.088,-4.516552 -10.088,-10.088 0,-5.571449 4.516551,-10.088001 10.088,-10.088001 5.571449,0 10.088,4.516552 10.088,10.088001 z"
       sodipodi:cx="23.488001"
       sodipodi:cy="44.471001"
       sodipodi:rx="10.088"
       sodipodi:ry="10.088" />
    <circle
       cx="50"
       cy="44.471001"
       r="10.087"
       id="circle5"
       style="fill:#000000;stroke:#ffffff;stroke-width:0.2755;stroke-miterlimit:10"
       d="m 60.087,44.471001 c 0,5.570896 -4.516104,10.087 -10.087,10.087 -5.570896,0 -10.087,-4.516104 -10.087,-10.087 0,-5.570897 4.516104,-10.087 10.087,-10.087 5.570896,0 10.087,4.516103 10.087,10.087 z"
       sodipodi:cx="50"
       sodipodi:cy="44.471001"
       sodipodi:rx="10.087"
       sodipodi:ry="10.087" />
    <circle
       cx="76.512001"
       cy="44.471001"
       r="10.087"
       id="circle7"
       style="fill:#000000;stroke:#ffffff;stroke-width:0.2755;stroke-miterlimit:10"
       d="m 86.599001,44.471001 c 0,5.570896 -4.516104,10.087 -10.087,10.087 -5.570896,0 -10.087,-4.516104 -10.087,-10.087 0,-5.570897 4.516104,-10.087 10.087,-10.087 5.570896,0 10.087,4.516103 10.087,10.087 z"
       sodipodi:cx="76.512001"
       sodipodi:cy="44.471001"
       sodipodi:rx="10.087"
       sodipodi:ry="10.087" />
    <circle
       cx="36.743999"
       cy="66.556999"
       r="10.087"
       id="circle9"
       style="fill:#000000;stroke:#ffffff;stroke-width:0.2755;stroke-miterlimit:10"
       d="m 46.830999,66.556999 c 0,5.570896 -4.516103,10.087 -10.087,10.087 -5.570896,0 -10.086999,-4.516104 -10.086999,-10.087 0,-5.570896 4.516103,-10.087 10.086999,-10.087 5.570897,0 10.087,4.516104 10.087,10.087 z"
       sodipodi:cx="36.743999"
       sodipodi:cy="66.556999"
       sodipodi:rx="10.087"
       sodipodi:ry="10.087" />
    <circle
       cx="63.256001"
       cy="66.556999"
       r="10.087"
       id="circle11"
       style="fill:#000000;stroke:#ffffff;stroke-width:0.2755;stroke-miterlimit:10"
       d="m 73.343,66.556999 c 0,5.570896 -4.516103,10.087 -10.086999,10.087 -5.570897,0 -10.087,-4.516104 -10.087,-10.087 0,-5.570896 4.516103,-10.087 10.087,-10.087 5.570896,0 10.086999,4.516104 10.086999,10.087 z"
       sodipodi:cx="63.256001"
       sodipodi:cy="66.556999"
       sodipodi:rx="10.087"
       sodipodi:ry="10.087" />
    <circle
       cx="50"
       cy="88.642998"
       r="10.087"
       id="circle13"
       style="fill:#000000;stroke:#ffffff;stroke-width:0.2755;stroke-miterlimit:10"
       d="m 60.087,88.642998 c 0,5.570896 -4.516104,10.087 -10.087,10.087 -5.570896,0 -10.087,-4.516104 -10.087,-10.087 0,-5.570896 4.516104,-10.087 10.087,-10.087 5.570896,0 10.087,4.516104 10.087,10.087 z"
       sodipodi:cx="50"
       sodipodi:cy="88.642998"
       sodipodi:rx="10.087"
       sodipodi:ry="10.087" />
    <path
       d="m 76.513,21.02 h -24.37 v -7.092 l 7.455,-7.456 c 0.837,-0.837 0.837,-2.193 0,-3.03 -0.836,-0.836 -2.193,-0.836 -3.029,0 l -8.083,8.083 c -0.402,0.402 -0.627,0.947 -0.627,1.515 v 7.979 H 23.488 c -1.775,0 -3.214,1.439 -3.214,3.214 0,1.775 1.439,3.214 3.214,3.214 h 53.024 c 1.775,0 3.214,-1.439 3.214,-3.214 0,-1.775 -1.438,-3.213 -3.213,-3.213 z"
       inkscape:connector-curvature="0"
       id="path15"
       style="fill:#000000" />
  </g>
</svg>
