<svg xmlns="http://www.w3.org/2000/svg" xmlns:xlink="http://www.w3.org/1999/xlink" xmlns:a="http://ns.adobe.com/AdobeSVGViewerExtensions/3.0/" version="1.1" x="0px" y="0px" width="100px" height="100px" viewBox="4.527 -12.786 100.0 135.0" overflow="visible" enable-background="new -0.473 -2.786 100 100" xml:space="preserve">
<defs>
</defs>
<path d="M93.75,80.334v-50.8c-23.014,9.118-67.733,9.118-67.733,9.118v42.117h-3.475v11.11h75.984v-8.071L93.75,80.334z   M31.661,80.766h-3.474v-5.644h3.474V80.766z M31.661,71.504h-3.474v-5.644h3.474V71.504z M31.661,62.242h-3.474V56.6h3.474V62.242z   M31.661,52.979h-3.474v-5.643h3.474V52.979z M37.624,80.766H34.15v-5.644h3.473V80.766z M37.624,71.504H34.15v-5.644h3.473V71.504z   M37.624,62.242H34.15V56.6h3.473V62.242z M37.624,52.979H34.15v-5.643h3.473V52.979z M43.587,80.766h-3.474v-5.644h3.474V80.766z   M43.587,71.504h-3.474v-5.644h3.474V71.504z M43.587,62.242h-3.474V56.6h3.474V62.242z M43.587,52.979h-3.474v-5.643h3.474V52.979z   M49.547,80.766h-3.473v-5.644h3.473V80.766z M49.547,71.504h-3.473v-5.644h3.473V71.504z M49.547,62.242h-3.473V56.6h3.473V62.242z   M49.547,52.979h-3.473v-5.643h3.473V52.979z M55.511,80.766h-3.473v-5.644h3.473V80.766z M55.511,71.504h-3.473v-5.644h3.473  V71.504z M55.511,62.242h-3.473V56.6h3.473V62.242z M55.511,52.979h-3.473v-5.643h3.473V52.979z M61.472,80.766h-3.471v-5.644h3.471  V80.766z M61.472,71.504h-3.471v-5.644h3.471V71.504z M61.472,62.242h-3.471V56.6h3.471V62.242z M61.472,52.979h-3.471v-5.643h3.471  V52.979z M67.435,80.766h-3.474v-5.644h3.474V80.766z M67.435,71.504h-3.474v-5.644h3.474V71.504z M67.435,62.242h-3.474V56.6h3.474  V62.242z M73.4,80.766h-3.475v-5.644H73.4V80.766z M73.4,71.504h-3.475v-5.644H73.4V71.504z M73.4,62.242h-3.475V56.6H73.4V62.242z   M79.362,80.766h-3.474v-5.644h3.474V80.766z M79.362,71.504h-3.474v-5.644h3.474V71.504z M85.325,80.766h-3.474v-5.644h3.474  V80.766z"/>
<path d="M41.325,15.09l-3.021-2.681l1.678-0.762l2.689,1.698l8.559-4.212l-8.649-8.118L44.822,0l10.796,6.903l1.462-0.681  c0.87-0.395,1.706-0.64,2.514-0.738l1.112-0.121c0.824-0.082,1.299,0.007,1.417,0.269c0.127,0.282-0.113,0.705-0.717,1.271  l-0.823,0.758c-0.604,0.543-1.359,1.019-2.253,1.425l-1.438,0.617l-1.904,12.688l-2.237,1.016l-0.419-11.854l-8.806,3.669  l-0.491,3.143l-1.677,0.763L41.325,15.09z"/>
<path d="M5.609,91.879H3.366l2.244-1.371v-2.243l1.763,1.808v-2.449l2.083,1.282c0,0,3.045-24.842,0.801-32.696  c0,0-4.247,1.443-4.729,4.167c0,0-1.202-3.686,0.962-6.57c0,0-3.446-1.923-6.491-0.962c0,0,3.273-4.087,6.639-1.976  c0,0,1.096-5.038,3.058-6.038c0,0-0.882,2.645,0.561,4.889c0,0,3.202-1.62,7.123-0.597c0,0-1.994,0.677-3.437,3.241  c0,0,1.603,3.205,1.764,5.128c0,0-2.645-1.603-4.087-1.603c0,0,1.202,1.122,0.08,32.535l2.164-1.121l-0.241,2.564l2.885-0.962  l-0.481,2.003l0.962,0.971H5.609z"/>
</svg>
