<svg xmlns="http://www.w3.org/2000/svg" xmlns:xlink="http://www.w3.org/1999/xlink" version="1.1" x="0px" y="0px" width="100px" height="100px" viewBox="0 0 100 100" enable-background="new 0 0 100 100" xml:space="preserve">
	<g>
		<path fill="#000000" d="M97.825,44.739c0.007,0,0.013-0.262-0.03-0.406c-0.066-0.214-0.197-0.359-0.352-0.499L86.521,8.043    c-0.16-0.528-0.648-0.877-1.2-0.877H15.014c-0.554,0-1.042,0.364-1.201,0.894L3.05,43.749c-0.251,0.169-0.45,0.377-0.538,0.676    c-0.035,0.119-0.021,0.315-0.021,0.315H2.397L2.5,46.134c0.223,2.961,3.512,7.459,7.897,7.459c0.756,0,1.153-0.117,2.196-0.352    V91.28c0.001,1.389,1.224,2.513,2.61,2.513s2.609-1.124,2.609-2.512V79.181h64.709v12.101c0,1.388,1.224,2.512,2.609,2.512    s2.609-1.124,2.609-2.512V53.242c1.044,0.234,1.441,0.375,2.197,0.375c4.385,0,7.65-4.523,7.873-7.484l0.126-1.394H97.825z     M71.296,44.739L66.581,9.253h7.527l7.849,35.486H71.296z M81.689,46.827c-0.807,2.087-2.805,3.765-4.979,3.765    s-4.171-1.678-4.977-3.765H81.689z M44.851,44.739l1.56-35.486h7.233l1.491,35.486H44.851z M55.146,46.827    c-0.808,2.087-2.806,3.765-4.979,3.765s-4.171-1.678-4.98-3.765H55.146z M18.446,44.739l7.766-35.486h7.578l-4.807,35.486H18.446z     M28.6,46.827c-0.805,2.087-2.803,3.765-4.978,3.765c-2.173,0-4.171-1.678-4.979-3.765H28.6z M17.813,76.05V50.275    c1.043,1.841,3.417,3.342,5.954,3.342c2.889,0,5.202-1.945,6.564-4.116c1.362,2.171,3.712,4.116,6.601,4.116    c2.887,0,5.255-1.945,6.618-4.116c1.361,2.171,3.739,4.116,6.627,4.116c2.887,0,5.27-1.945,6.632-4.116    c1.36,2.171,3.746,4.116,6.632,4.116c2.89,0,5.274-1.945,6.637-4.116c1.36,2.171,3.602,4.116,6.491,4.116    c2.537,0,4.909-1.501,5.953-3.342V76.05H17.813z"/>
		<path fill="#000000" d="M27.968,64.214c-0.679,0.06-1.319,0.237-1.906,0.5l-0.207-0.439c0.008-0.001,1.75-0.146,2.499-1.973    c0.703-1.73-0.406-3.16-0.406-3.16s-1.635-0.137-2.497,1.977c-0.287,0.702-0.32,1.283-0.254,1.76l-0.523-1.111l-1.36,0.64    c0,0,1.551,1.903,2.139,2.624c-1.935,1.145-3.149,3.326-2.934,5.715c0.3,3.309,3.223,5.747,6.529,5.447    c3.309-0.297,5.747-3.223,5.449-6.531C34.202,66.354,31.274,63.914,27.968,64.214z"/>
		<path fill="#000000" d="M42.413,64.214c-0.68,0.06-1.319,0.237-1.908,0.5l-0.206-0.439c0.008-0.001,1.751-0.146,2.499-1.973    c0.703-1.73-0.407-3.16-0.407-3.16s-1.636-0.137-2.496,1.977c-0.286,0.702-0.322,1.283-0.255,1.76l-0.522-1.111l-1.361,0.64    c0,0,1.553,1.903,2.139,2.624c-1.936,1.145-3.148,3.326-2.934,5.715c0.299,3.309,3.225,5.747,6.531,5.447    c3.306-0.297,5.746-3.223,5.449-6.531C48.644,66.354,45.719,63.914,42.413,64.214z"/>
		<path fill="#000000" d="M56.855,64.214c-0.678,0.06-1.319,0.237-1.907,0.5l-0.206-0.439c0.01-0.001,1.752-0.146,2.498-1.973    c0.704-1.73-0.403-3.16-0.403-3.16s-1.637-0.137-2.499,1.977c-0.285,0.702-0.322,1.283-0.254,1.76l-0.522-1.111l-1.36,0.64    c0,0,1.552,1.903,2.138,2.624c-1.934,1.145-3.148,3.326-2.933,5.715c0.3,3.309,3.223,5.747,6.529,5.447    c3.309-0.297,5.747-3.223,5.449-6.531C63.088,66.354,60.161,63.914,56.855,64.214z"/>
		<path fill="#000000" d="M71.299,64.214c-0.678,0.06-1.318,0.237-1.908,0.5l-0.205-0.439c0.009-0.001,1.751-0.146,2.498-1.973    c0.705-1.73-0.404-3.16-0.404-3.16s-1.637-0.137-2.499,1.977c-0.285,0.702-0.322,1.283-0.254,1.76l-0.521-1.111l-1.36,0.64    c0,0,1.553,1.903,2.138,2.624c-1.935,1.145-3.147,3.326-2.934,5.715c0.3,3.309,3.223,5.747,6.531,5.447    c3.307-0.297,5.747-3.223,5.448-6.531C77.53,66.354,74.605,63.914,71.299,64.214z"/>
	</g>
</svg>
