<svg xmlns="http://www.w3.org/2000/svg" xmlns:xlink="http://www.w3.org/1999/xlink" version="1.1" id="Layer_1" x="0px" y="0px" width="90px" height="90px" viewBox="4.5 -9.0 90.0 121.5" enable-background="new 0 0 90 90" xml:space="preserve">
<g>
	<path d="M34.458,24.924c-2.88-1.648-5.694-2.871-6.841-3.495c0.137-0.478,0.404-0.789,0.725-1.162   c0.466-0.54,1.048-1.212,1.048-2.375c0-1.544-1.257-2.799-2.801-2.799c-1.543,0-2.798,1.255-2.798,2.799   c0,0.511,0.416,0.926,0.926,0.926s0.926-0.416,0.926-0.926c0-0.522,0.424-0.947,0.946-0.947c0.522,0,0.947,0.425,0.947,0.947   c0,0.453-0.184,0.685-0.597,1.165c-0.434,0.503-1.014,1.178-1.209,2.332c-0.49,0.315-1.266,0.937-2.516,1.945   c-0.618,0.497-1.43,0.964-2.256,1.467h-0.042l0.012,0.018c-0.03,0.019-0.06,0.037-0.089,0.055   c-2.094,0.172-3.999,1.299-5.083,3.128L7.853,41.326l6.532,3.073l4.848-10.116c0,0,1.839,10.014,1.683,13.383   c-0.328,7.012-6.088,27.412-6.088,27.412c-0.106,0.485,0.009,0.988,0.321,1.374c0.306,0.388,0.78,0.61,1.275,0.61h22.057   c0.495,0,0.959-0.223,1.274-0.61c0.309-0.386,0.425-0.889,0.318-1.374c0,0-5.764-20.4-6.091-27.412   c-0.158-3.369,1.688-13.383,1.688-13.383l4.842,10.116l6.53-3.073l-7.895-13.322C38.132,26.291,36.394,25.198,34.458,24.924z    M27.45,34.601l-5.657-8.483c2.059-1.438,4.008-2.754,4.835-3.223c1.033,0.533,3.642,1.973,6.312,3.475L27.45,34.601z"/>
	<path d="M73.943,31.843h0.236c4.507,0,5.444,0,5.937-0.51c0.167-0.173,0.251-0.395,0.24-0.642   c-0.018-0.448-0.358-0.895-2.104-1.967c-3.782-2.33-10.174-6.1-12.061-7.125c0.136-0.477,0.404-0.788,0.724-1.162   c0.469-0.54,1.049-1.211,1.049-2.375c0-1.544-1.256-2.8-2.8-2.8c-1.543,0-2.799,1.256-2.799,2.8c0,0.511,0.415,0.926,0.926,0.926   s0.927-0.416,0.927-0.926c0-0.522,0.425-0.947,0.946-0.947c0.522,0,0.947,0.425,0.947,0.947c0,0.453-0.184,0.685-0.597,1.165   c-0.432,0.501-1.01,1.172-1.207,2.314c-1.743,0.935-8.314,4.811-12.166,7.183c-1.746,1.075-2.087,1.523-2.103,1.966   c-0.011,0.246,0.071,0.469,0.239,0.643c0.489,0.51,1.427,0.51,6.054,0.51l1.984,0.024v2.383h-2.628l0.753,42.675h4.879   l3.877-33.789l3.876,33.789h4.882l0.75-42.675h-1.632v-2.396L73.943,31.843z M72.084,34.25h-6.887h-5.89v-2.37l3.803,0.1   l8.974-0.114V34.25z M53.708,30.395c-0.306,0.015-0.915,0-1.452-0.025c2.63-1.621,10.899-6.258,12.941-7.308   c2.047,1.053,10.362,5.715,12.953,7.307c-0.541,0.027-1.173,0.027-1.463,0.027l-2.721-0.012L53.708,30.395z"/>
</g>
</svg>
