<svg xmlns="http://www.w3.org/2000/svg" xmlns:xlink="http://www.w3.org/1999/xlink" version="1.1" id="Layer_1" x="0px" y="0px" width="81.019px" height="100px" viewBox="1.48395 -17.008 81.019 135.0" enable-background="new -2.567 -7.008 81.019 100" xml:space="preserve">
<path d="M78.452,7.348v85.645H14.338c-9.412,0-16.905-6.541-16.905-16.271V2.562c0-5.261,4.305-9.569,9.566-9.569h59.333v73.525  H14.338c-6.538,0-11.164,3.506-11.164,9.887v0.321c0,6.377,4.626,10.524,11.164,10.524h59.648V7.348H78.452z M66.332,74.492H14.973  c-1.437,0-2.708,0.796-2.708,2.072c0,1.595,1.277,2.394,2.708,2.394h51.358V74.492z"/>
<text x="-2.567" y="110.492" font-size="5.0" font-weight="bold" font-family="Helvetica Neue, Helvetica, Arial-Unicode, Arial, Sans-serif" fill="#000000">Created by John Caserta</text><text x="-2.567" y="115.492" font-size="5.0" font-weight="bold" font-family="Helvetica Neue, Helvetica, Arial-Unicode, Arial, Sans-serif" fill="#000000">from the Noun Project</text></svg>