<svg xmlns="http://www.w3.org/2000/svg" xmlns:xlink="http://www.w3.org/1999/xlink" version="1.1" id="Layer_1" x="0px" y="0px" width="90px" height="90px" viewBox="4.5 -9.0 90.0 121.5" enable-background="new 0 0 90 90" xml:space="preserve">
<g>
	<path d="M29.777,13.345c0,0-0.797,1.651-1.45,1.651h-3.741c-0.797,0-0.11-1.651-0.11-1.651l-0.639-4.27   c0-0.415,0.334-0.75,0.749-0.75h3.741c0.411,0,0.745,0.334,0.745,0.75L29.777,13.345z"/>
	<circle cx="33.899" cy="11.663" r="1.751"/>
	<path d="M48.872,11.659c0,0.683-0.389,1.273-0.959,1.56v0.239c0,0.429-0.353,0.782-0.784,0.782c-0.217,0-0.412-0.088-0.555-0.228   c-0.139-0.144-0.228-0.338-0.228-0.554v-0.243c-0.569-0.286-0.958-0.873-0.958-1.556c0-0.68,0.389-1.267,0.958-1.553V9.868   c0-0.433,0.353-0.785,0.782-0.785c0.215,0,0.414,0.091,0.555,0.231c0.143,0.143,0.227,0.338,0.229,0.554v0.235   C48.483,10.389,48.872,10.979,48.872,11.659z"/>
	<path d="M54.962,11.659c0,0.683-0.39,1.273-0.958,1.56v0.239c0,0.429-0.353,0.782-0.782,0.782c-0.217,0-0.411-0.088-0.554-0.228   c-0.145-0.144-0.231-0.338-0.231-0.554v-0.239c-0.568-0.29-0.959-0.877-0.959-1.556c0-0.684,0.391-1.271,0.959-1.557V9.868   c0-0.433,0.352-0.785,0.785-0.785c0.216,0.002,0.412,0.088,0.553,0.231s0.229,0.338,0.229,0.554v0.235   C54.572,10.389,54.962,10.979,54.962,11.659z"/>
	<path d="M61.056,11.663c0,0.679-0.39,1.266-0.958,1.552v0.239c0,0.433-0.354,0.786-0.783,0.786c-0.221,0-0.414-0.088-0.553-0.232   c-0.144-0.143-0.232-0.337-0.232-0.554v-0.235c-0.568-0.287-0.958-0.877-0.958-1.556c0-0.684,0.39-1.271,0.958-1.557V9.864   c0-0.429,0.354-0.781,0.785-0.781c0.213,0,0.408,0.088,0.555,0.231c0.139,0.139,0.229,0.333,0.229,0.554v0.238   C60.666,10.393,61.056,10.979,61.056,11.663z"/>
	<path d="M67.146,11.659c0,0.683-0.39,1.273-0.959,1.556v0.243c0,0.429-0.353,0.782-0.785,0.782c-0.213,0-0.408-0.088-0.555-0.232   c-0.141-0.139-0.227-0.334-0.227-0.55v-0.243c-0.57-0.286-0.959-0.873-0.959-1.556c0-0.68,0.389-1.267,0.959-1.553V9.868   c0-0.433,0.352-0.785,0.781-0.785c0.219,0,0.414,0.088,0.554,0.231c0.144,0.143,0.231,0.338,0.231,0.554v0.235   C66.756,10.389,67.146,10.979,67.146,11.659z"/>
	<path d="M72.365,0.1H18.618c-1.622,0-2.936,1.314-2.936,2.937v17.252c0,1.622,1.314,2.937,2.936,2.937h53.748   c1.621,0,2.936-1.314,2.936-2.937V3.037C75.301,1.414,73.986,0.1,72.365,0.1z M69.747,16.802c0,0.812-0.657,1.468-1.468,1.468   H22.762c-0.807,0-1.468-0.656-1.468-1.468V6.524c0-0.812,0.661-1.468,1.468-1.468h45.518c0.811,0,1.468,0.656,1.468,1.468V16.802z"/>
	<path fill="#000000" d="M29.777,13.345c0,0-0.797,1.651-1.45,1.651h-3.741c-0.797,0-0.11-1.651-0.11-1.651l-0.639-4.27   c0-0.415,0.334-0.75,0.749-0.75h3.741c0.411,0,0.745,0.334,0.745,0.75L29.777,13.345z"/>
	<circle fill="#000000" cx="33.899" cy="11.663" r="1.751"/>
	<path fill="#000000" d="M48.872,11.659c0,0.683-0.389,1.273-0.959,1.56v0.239c0,0.429-0.353,0.782-0.784,0.782   c-0.217,0-0.412-0.088-0.555-0.228c-0.139-0.144-0.228-0.338-0.228-0.554v-0.243c-0.569-0.286-0.958-0.873-0.958-1.556   c0-0.68,0.389-1.267,0.958-1.553V9.868c0-0.433,0.353-0.785,0.782-0.785c0.215,0,0.414,0.091,0.555,0.231   c0.143,0.143,0.227,0.338,0.229,0.554v0.235C48.483,10.389,48.872,10.979,48.872,11.659z"/>
	<path fill="#000000" d="M54.962,11.659c0,0.683-0.39,1.273-0.958,1.56v0.239c0,0.429-0.353,0.782-0.782,0.782   c-0.217,0-0.411-0.088-0.554-0.228c-0.145-0.144-0.231-0.338-0.231-0.554v-0.239c-0.568-0.29-0.959-0.877-0.959-1.556   c0-0.684,0.391-1.271,0.959-1.557V9.868c0-0.433,0.352-0.785,0.785-0.785c0.216,0.002,0.412,0.088,0.553,0.231   s0.229,0.338,0.229,0.554v0.235C54.572,10.389,54.962,10.979,54.962,11.659z"/>
	<path fill="#000000" d="M61.056,11.663c0,0.679-0.39,1.266-0.958,1.552v0.239c0,0.433-0.354,0.786-0.783,0.786   c-0.221,0-0.414-0.088-0.553-0.232c-0.144-0.143-0.232-0.337-0.232-0.554v-0.235c-0.568-0.287-0.958-0.877-0.958-1.556   c0-0.684,0.39-1.271,0.958-1.557V9.864c0-0.429,0.354-0.781,0.785-0.781c0.213,0,0.408,0.088,0.555,0.231   c0.139,0.139,0.229,0.333,0.229,0.554v0.238C60.666,10.393,61.056,10.979,61.056,11.663z"/>
	<path fill="#000000" d="M67.146,11.659c0,0.683-0.39,1.273-0.959,1.556v0.243c0,0.429-0.353,0.782-0.785,0.782   c-0.213,0-0.408-0.088-0.555-0.232c-0.141-0.139-0.227-0.334-0.227-0.55v-0.243c-0.57-0.286-0.959-0.873-0.959-1.556   c0-0.68,0.389-1.267,0.959-1.553V9.868c0-0.433,0.352-0.785,0.781-0.785c0.219,0,0.414,0.088,0.554,0.231   c0.144,0.143,0.231,0.338,0.231,0.554v0.235C66.756,10.389,67.146,10.979,67.146,11.659z"/>
	<path d="M71.811,25.325H19.176c-1.931,0-3.494,1.564-3.494,3.494v52.632c0,1.932,1.563,3.494,3.494,3.494h2.338v2.594   c0,0.654,0.297,1.24,0.778,1.67c0.481,0.428,1.141,0.691,1.873,0.691c1.46,0,2.65-1.057,2.65-2.361v-2.594h37.654v2.594   c0,0.654,0.298,1.24,0.773,1.67c0.482,0.428,1.143,0.691,1.874,0.691c1.463,0,2.649-1.057,2.649-2.361v-2.594h2.045   c1.931,0,3.49-1.562,3.49-3.494V28.819C75.301,26.889,73.741,25.325,71.811,25.325z M69.81,77.867c0,0.781-0.629,1.418-1.41,1.418   H22.931c-0.782,0-1.417-0.637-1.417-1.418V32.398c0-0.778,0.635-1.414,1.417-1.414h45.468c0.781,0,1.41,0.635,1.41,1.414V77.867z"/>
	<path d="M67.562,76.473c0,0.404-0.328,0.734-0.734,0.734H24.155c-0.405,0-0.734-0.33-0.734-0.734V33.799   c0-0.405,0.329-0.733,0.734-0.733h42.672c0.406,0,0.734,0.329,0.734,0.733V76.473z"/>
	<path d="M67.146,11.659c0,0.683-0.39,1.273-0.959,1.556v0.243c0,0.429-0.353,0.782-0.785,0.782c-0.213,0-0.408-0.088-0.555-0.232   c-0.141-0.139-0.227-0.334-0.227-0.55v-0.243c-0.57-0.286-0.959-0.873-0.959-1.556c0-0.68,0.389-1.267,0.959-1.553V9.868   c0-0.433,0.352-0.785,0.781-0.785c0.219,0,0.414,0.088,0.554,0.231c0.144,0.143,0.231,0.338,0.231,0.554v0.235   C66.756,10.389,67.146,10.979,67.146,11.659z"/>
	<path d="M48.872,11.659c0,0.683-0.389,1.273-0.959,1.56v0.239c0,0.429-0.353,0.782-0.784,0.782c-0.217,0-0.412-0.088-0.555-0.228   c-0.139-0.144-0.228-0.338-0.228-0.554v-0.243c-0.569-0.286-0.958-0.873-0.958-1.556c0-0.68,0.389-1.267,0.958-1.553V9.868   c0-0.433,0.353-0.785,0.782-0.785c0.215,0,0.414,0.091,0.555,0.231c0.143,0.143,0.227,0.338,0.229,0.554v0.235   C48.483,10.389,48.872,10.979,48.872,11.659z"/>
	<path d="M61.056,11.663c0,0.679-0.39,1.266-0.958,1.552v0.239c0,0.433-0.354,0.786-0.783,0.786c-0.221,0-0.414-0.088-0.553-0.232   c-0.144-0.143-0.232-0.337-0.232-0.554v-0.235c-0.568-0.287-0.958-0.877-0.958-1.556c0-0.684,0.39-1.271,0.958-1.557V9.864   c0-0.429,0.354-0.781,0.785-0.781c0.213,0,0.408,0.088,0.555,0.231c0.139,0.139,0.229,0.333,0.229,0.554v0.238   C60.666,10.393,61.056,10.979,61.056,11.663z"/>
	<path d="M54.962,11.659c0,0.683-0.39,1.273-0.958,1.56v0.239c0,0.429-0.353,0.782-0.782,0.782c-0.217,0-0.411-0.088-0.554-0.228   c-0.145-0.144-0.231-0.338-0.231-0.554v-0.239c-0.568-0.29-0.959-0.877-0.959-1.556c0-0.684,0.391-1.271,0.959-1.557V9.868   c0-0.433,0.352-0.785,0.785-0.785c0.216,0.002,0.412,0.088,0.553,0.231s0.229,0.338,0.229,0.554v0.235   C54.572,10.389,54.962,10.979,54.962,11.659z"/>
	<circle cx="33.899" cy="11.663" r="1.751"/>
	<path d="M29.777,13.345c0,0-0.797,1.651-1.45,1.651h-3.741c-0.797,0-0.11-1.651-0.11-1.651l-0.639-4.27   c0-0.415,0.334-0.75,0.749-0.75h3.741c0.411,0,0.745,0.334,0.745,0.75L29.777,13.345z"/>
</g>
</svg>
