<?xml version="1.0" encoding="UTF-8" standalone="no"?>
<svg
   xmlns:dc="http://purl.org/dc/elements/1.1/"
   xmlns:cc="http://creativecommons.org/ns#"
   xmlns:rdf="http://www.w3.org/1999/02/22-rdf-syntax-ns#"
   xmlns:svg="http://www.w3.org/2000/svg"
   xmlns="http://www.w3.org/2000/svg"
   xmlns:sodipodi="http://sodipodi.sourceforge.net/DTD/sodipodi-0.dtd"
   xmlns:inkscape="http://www.inkscape.org/namespaces/inkscape"
   version="1.1"
   width="1000"
   height="1000"
   id="svg3032"
   inkscape:version="0.48.5 r10040"
   sodipodi:docname="pizza.svg">
  <metadata
     id="metadata11">
    <rdf:RDF>
      <cc:Work
         rdf:about="">
        <dc:format>image/svg+xml</dc:format>
        <dc:type
           rdf:resource="http://purl.org/dc/dcmitype/StillImage" />
      </cc:Work>
    </rdf:RDF>
  </metadata>
  <defs
     id="defs9" />
  <sodipodi:namedview
     pagecolor="#ffffff"
     bordercolor="#666666"
     borderopacity="1"
     objecttolerance="10"
     gridtolerance="10"
     guidetolerance="10"
     inkscape:pageopacity="0"
     inkscape:pageshadow="2"
     inkscape:window-width="640"
     inkscape:window-height="480"
     id="namedview7"
     showgrid="false"
     inkscape:zoom="0.236"
     inkscape:cx="-16.949153"
     inkscape:cy="459.74576"
     inkscape:window-x="0"
     inkscape:window-y="0"
     inkscape:window-maximized="0"
     inkscape:current-layer="svg3032" />
  <g
     id="g2988"
     transform="matrix(7.9067797,0,0,7.9067797,201.14745,104.66101)">
    <path
       id="path3"
       d="m 37.797,14 c 11.494,0 22.461,2.284 32.492,6.394 L 75.594,7.398 C 63.932,2.633 51.173,0 37.797,0 24.421,0 11.662,2.633 0,7.398 L 5.305,20.394 C 15.336,16.284 26.303,14 37.797,14 z"
       inkscape:connector-curvature="0" />
    <path
       id="path5"
       d="M 37.797,18 C 26.838,18 16.381,20.177 6.817,24.096 L 37.797,100 68.777,24.096 C 59.213,20.178 48.756,18 37.797,18 z m -17.5,18 c 0,-4.418 3.582,-8 8,-8 4.418,0 8,3.582 8,8 0,4.418 -3.582,8 -8,8 -4.418,0 -8,-3.582 -8,-8 z m 17.5,33 c -2.762,0 -5,-2.238 -5,-5 0,-2.762 2.238,-5 5,-5 2.762,0 5,2.238 5,5 0,2.762 -2.238,5 -5,5 z m 13.5,-30 c -3.313,0 -6,-2.687 -6,-6 0,-3.313 2.687,-6 6,-6 3.313,0 6,2.687 6,6 0,3.313 -2.687,6 -6,6 z"
       inkscape:connector-curvature="0" />
  </g>
</svg>
