<?xml version="1.0" encoding="UTF-8" standalone="no"?>
<!-- Created with Inkscape (http://www.inkscape.org/) -->

<svg
   xmlns:dc="http://purl.org/dc/elements/1.1/"
   xmlns:cc="http://creativecommons.org/ns#"
   xmlns:rdf="http://www.w3.org/1999/02/22-rdf-syntax-ns#"
   xmlns:svg="http://www.w3.org/2000/svg"
   xmlns="http://www.w3.org/2000/svg"
   xmlns:sodipodi="http://sodipodi.sourceforge.net/DTD/sodipodi-0.dtd"
   xmlns:inkscape="http://www.inkscape.org/namespaces/inkscape"
   version="1.1"
   width="1000"
   height="1000"
   id="svg3032"
   inkscape:version="0.48.5 r10040"
   sodipodi:docname="tee.svg">
  <sodipodi:namedview
     pagecolor="#ffffff"
     bordercolor="#666666"
     borderopacity="1"
     objecttolerance="10"
     gridtolerance="10"
     guidetolerance="10"
     inkscape:pageopacity="0"
     inkscape:pageshadow="2"
     inkscape:window-width="640"
     inkscape:window-height="480"
     id="namedview7"
     showgrid="false"
     inkscape:zoom="0.236"
     inkscape:cx="-16.949153"
     inkscape:cy="459.74576"
     inkscape:window-x="0"
     inkscape:window-y="0"
     inkscape:window-maximized="0"
     inkscape:current-layer="svg3032" />
  <defs
     id="defs5498" />
  <metadata
     id="metadata5594">
    <rdf:RDF>
      <cc:Work
         rdf:about="">
        <dc:format>image/svg+xml</dc:format>
        <dc:type
           rdf:resource="http://purl.org/dc/dcmitype/StillImage" />
        <dc:title />
      </cc:Work>
    </rdf:RDF>
  </metadata>
  <g
     id="main_layer"
     transform="matrix(9.3711127,0,0,11.251504,33.318588,-100.83031)">
    <path
       d="M 94.4,32.3 80.3,19.1 C 80,18.8 79.6,18.6 79.2,18.6 L 63.1,16.2 C 62.8,21 57,24.8 49.8,24.8 42.6,24.8 36.8,21 36.5,16.2 l -16.1,2.4 c -0.4,0 -0.8,0.2 -1.1,0.5 L 5.2,32.3 c -0.6,0.6 -0.6,1.6 0,2.2 l 12.1,12.8 c 0.6,0.6 1.5,0.6 2.1,0 l 8.3,-8.8 C 28,59.1 27.1,82.7 26.8,89 c 0,0.9 0.6,1.6 1.5,1.6 l 21.5,0 21.5,0 c 0.8,0 1.5,-0.7 1.5,-1.6 -0.3,-6.3 -1.1,-29.9 -0.9,-50.6 l 8.3,8.8 c 0.6,0.6 1.5,0.6 2.1,0 L 94.4,34.4 c 0.6,-0.5 0.6,-1.5 0,-2.1 z"
       id="path3"
       inkscape:connector-curvature="0" />
  </g>
</svg>
